# xmcd
# 
# Track frame offsets:
#     150
#     9289
#     19133
#     54816
#     90160
#     98883
#     127204
#     153496
#     177612
#     205940
# 
# Disc length: 3273
# 
# Revision: 13
# Processed by: cddbd v1.5.2PL0 Copyright (c) Steve Scherf et al.
# Submitted via: BonkEnc v1.0.5
# 
DISCID=770cc70a
DTITLE=Racionais MCs - Nada Como Um Dia Após o Outro Dia - Ri Depois
DYEAR=2002
DGENRE=Rap
TTITLE0=De Volta a Cena
TTITLE1=Otus 500
TTITLE2=Crime Vai e Vem
TTITLE3=Jesus Chorou
TTITLE4=Fone (Intro)
TTITLE5=Estilo Cachorro
TTITLE6=V.L. (Parte 2)
TTITLE7=Expresso da Meia-Noite
TTITLE8=Trutas e Quebradas
TTITLE9=Da Ponte pra Cá
EXTD=YEAR: 2002
EXTT0=
EXTT1=
EXTT2=
EXTT3=
EXTT4=
EXTT5=
EXTT6=
EXTT7=
EXTT8=
EXTT9=
PLAYORDER=
